<?xml version="1.0" encoding="UTF-8" standalone="no"?>
<!-- Created with Inkscape (http://www.inkscape.org/) -->

<svg
   xmlns:dc="http://purl.org/dc/elements/1.1/"
   xmlns:cc="http://creativecommons.org/ns#"
   xmlns:rdf="http://www.w3.org/1999/02/22-rdf-syntax-ns#"
   xmlns:svg="http://www.w3.org/2000/svg"
   xmlns="http://www.w3.org/2000/svg"
   xmlns:sodipodi="http://sodipodi.sourceforge.net/DTD/sodipodi-0.dtd"
   xmlns:inkscape="http://www.inkscape.org/namespaces/inkscape"
   width="32pt"
   height="32pt"
   viewBox="0 0 40.000001 40"
   id="svg2"
   version="1.1"
   inkscape:version="0.91 r13725"
   inkscape:export-filename="/Users/olibrehm/Documents/xcode/SpriteKit/Wormazing/Wormaze/Textures/playerTail.png"
   inkscape:export-xdpi="90.029999"
   inkscape:export-ydpi="90.029999"
   sodipodi:docname="collectable.svg">
  <defs
     id="defs4" />
  <sodipodi:namedview
     id="base"
     pagecolor="#ffffff"
     bordercolor="#666666"
     borderopacity="1.0"
     inkscape:pageopacity="0.0"
     inkscape:pageshadow="2"
     inkscape:zoom="11.2"
     inkscape:cx="18.664322"
     inkscape:cy="21.225521"
     inkscape:document-units="px"
     inkscape:current-layer="layer1"
     showgrid="false"
     units="pt"
     inkscape:window-width="1280"
     inkscape:window-height="692"
     inkscape:window-x="0"
     inkscape:window-y="12"
     inkscape:window-maximized="0" />
  <metadata
     id="metadata7">
    <rdf:RDF>
      <cc:Work
         rdf:about="">
        <dc:format>image/svg+xml</dc:format>
        <dc:type
           rdf:resource="http://purl.org/dc/dcmitype/StillImage" />
        <dc:title></dc:title>
      </cc:Work>
    </rdf:RDF>
  </metadata>
  <g
     inkscape:label="Ebene 1"
     inkscape:groupmode="layer"
     id="layer1"
     transform="translate(0,-1012.3622)">
    <path
       sodipodi:type="star"
       style="fill:#ffff00;fill-rule:evenodd;stroke:#ff6600;stroke-width:1px;stroke-linecap:butt;stroke-linejoin:miter;stroke-opacity:1"
       id="path3408"
       sodipodi:sides="8"
       sodipodi:cx="9.6542101"
       sodipodi:cy="1042.708"
       sodipodi:r1="9.1599483"
       sodipodi:r2="5.3506465"
       sodipodi:arg1="0.75092906"
       sodipodi:arg2="1.1436281"
       inkscape:flatsided="false"
       inkscape:rounded="0.01"
       inkscape:randomized="0"
       d="m 16.350639,1048.958 c -0.03198,0.034 -4.437019,-1.3996 -4.479682,-1.3801 -0.04266,0.019 -1.854227,4.283 -1.9010742,4.2846 -0.046847,0 -2.1478018,-4.1271 -2.1917008,-4.1435 -0.043899,-0.016 -4.3397038,1.7174 -4.3739718,1.6854 -0.034268,-0.032 1.3995686,-4.437 1.3801486,-4.4796 -0.01942,-0.043 -4.28304063,-1.8543 -4.28465604,-1.9011 -0.001615,-0.047 4.12709064,-2.1478 4.14352574,-2.1917 0.016435,-0.044 -1.7174304,-4.3397 -1.6854469,-4.374 0.031983,-0.034 4.437019,1.3996 4.4796816,1.3802 0.042663,-0.019 1.8542274,-4.2831 1.9010742,-4.2847 0.046847,-0 2.1478016,4.1271 2.1917006,4.1435 0.0439,0.017 4.339704,-1.7174 4.373972,-1.6854 0.03427,0.032 -1.399569,4.437 -1.380149,4.4797 0.01942,0.043 4.283041,1.8542 4.284656,1.901 0.0016,0.047 -4.12709,2.1478 -4.143525,2.1917 -0.01643,0.044 1.71743,4.3397 1.685447,4.374 z"
       transform="matrix(2.055557,0,0,2.0700432,0.1552219,-1125.9663)" />
  </g>
</svg>
